<svg id="Capa_1" enable-background="new 0 0 512 512" height="512" viewBox="0 0 512 512" width="512" xmlns="http://www.w3.org/2000/svg"><g><g><g><g><g><g><g><g><g><circle cx="256" cy="256" fill="#bfe1ff" r="256"/></g></g></g></g></g></g></g></g><path d="m510.659 282.36-94.766-94.766-123.508 47.273-138.202-138.203 4.535 37.148-44.244 2.561 120.477 120.477-196.451 75.192 176.728 176.728c13.278 2.126 26.896 3.23 40.772 3.23 132.485 0 241.464-100.64 254.659-229.64z" fill="#87c7ff"/><g><path d="m256 161.302c95.297 0 172.809 76.032 175.25 170.74h42.25c-1.629-118.739-98.374-214.497-217.5-214.497s-215.871 95.758-217.5 214.497h42.25c2.441-94.708 79.953-170.74 175.25-170.74z" fill="#ff73a5"/></g><g><path d="m256 117.545c-.082 0-.162.003-.244.003v43.757c.082 0 .162-.003.244-.003 95.297 0 172.809 76.032 175.25 170.74h42.25c-1.629-118.739-98.374-214.497-217.5-214.497z" fill="#ff468c"/></g><g><path d="m256 199.238c74.505 0 135.217 58.986 138.022 132.805h45.155c-1.626-99.784-83.007-180.175-183.177-180.175s-181.552 80.391-183.177 180.174h45.155c2.804-73.818 63.517-132.804 138.022-132.804z" fill="#ffce00"/></g><g><path d="m256 151.868c-.082 0-.162.003-.244.003v47.37c.082 0 .162-.003.244-.003 74.505 0 135.217 58.986 138.022 132.805h45.155c-1.626-99.783-83.007-180.175-183.177-180.175z" fill="#fdba12"/></g><g><path d="m256 254.863c45.502 0 83.152 33.502 89.701 77.179h51.533c-1.619-76.617-64.228-138.231-141.234-138.231s-139.615 61.614-141.234 138.232h51.533c6.549-43.678 44.199-77.18 89.701-77.18z" fill="#a7e340"/></g><g><path d="m256 193.811c-.082 0-.162.003-.244.003v61.055c.082 0 .162-.006.244-.006 45.502 0 83.152 33.502 89.701 77.179h51.533c-1.619-76.617-64.228-138.231-141.234-138.231z" fill="#86c42b"/></g><g><path d="m256 233.519c-55.146 0-100.031 43.812-101.817 98.524h39.192c1.099-33.652 28.707-60.6 62.626-60.6s61.527 26.948 62.626 60.6h39.192c-1.788-54.712-46.673-98.524-101.819-98.524z" fill="#b674f2"/></g><g><path d="m256 233.519c-.082 0-.162.003-.244.003v37.927c.082 0 .162-.006.244-.006 33.919 0 61.527 26.948 62.625 60.6h39.192c-1.786-54.712-46.671-98.524-101.817-98.524z" fill="#8f4cd6"/></g><g><ellipse cx="435" cy="291.632" fill="#e9edf5" rx="29.632" ry="29.632" transform="matrix(.686 -.728 .728 .686 -75.56 408.264)"/></g><g><ellipse cx="154.183" cy="136.373" fill="#fff" rx="39.709" ry="39.709" transform="matrix(.686 -.728 .728 .686 -50.805 155.079)"/></g></g></svg>